<svg width="14" height="32" viewBox="0 0 14 32" xmlns="http://www.w3.org/2000/svg"><title>F297B3F2-8A2A-42D8-86F7-E95B9D9BE765</title><g fill="#FFF"><path d="M9.567 27.551L7 30.127 4.433 27.55a.75.75 0 0 0-1.089 0 .756.756 0 0 0 0 1.093l3.112 3.122c.155.156.35.234.544.234a.766.766 0 0 0 .544-.234l3.112-3.122a.756.756 0 0 0 0-1.093.75.75 0 0 0-1.09 0z"/><path d="M10.656 23.259a.75.75 0 0 0-1.09 0L7 25.834 4.433 23.26a.75.75 0 0 0-1.089 0 .756.756 0 0 0 0 1.092l3.112 3.122c.155.156.35.234.544.234a.766.766 0 0 0 .544-.234l3.112-3.122a.756.756 0 0 0 0-1.092zM14 14.049V7.024C14 3.161 10.85 0 7 0S0 3.161 0 7.024v7.025c0 3.863 3.15 7.024 7 7.024s7-3.16 7-7.024zm-7 5.463c-2.994 0-5.444-2.458-5.444-5.463V7.024c0-3.004 2.45-5.463 5.444-5.463 2.994 0 5.444 2.459 5.444 5.463v7.025c0 3.005-2.45 5.463-5.444 5.463z"/><path d="M7 4.293a.781.781 0 0 0-.778.78v2.342c0 .429.35.78.778.78a.781.781 0 0 0 .778-.78V5.073A.78.78 0 0 0 7 4.293z"/></g></svg>