<?xml version="1.0" encoding="UTF-8"?>
<svg width="14px" height="32px" viewBox="0 0 14 32" version="1.1" xmlns="http://www.w3.org/2000/svg" xmlns:xlink="http://www.w3.org/1999/xlink">
    <title>F297B3F2-8A2A-42D8-86F7-E95B9D9BE765</title>
    <desc>Created with sketchtool.</desc>
    <defs></defs>
    <g id="Welcome" stroke="none" stroke-width="1" fill="none" fill-rule="evenodd">
        <g id="02-Desk-2" transform="translate(-505.000000, -514.000000)" fill="#FFFFFF">
            <g id="Slide-2" transform="translate(0.000000, -53.000000)">
                <g id="ico_scroll_down" transform="translate(505.000000, 567.000000)">
                    <g id="Shape">
                        <path d="M9.56666667,27.5512195 L7,30.1268293 L4.43333333,27.5512195 C4.12222222,27.2390244 3.65555556,27.2390244 3.34444444,27.5512195 C3.03333333,27.8634146 3.03333333,28.3317073 3.34444444,28.6439024 L6.45555556,31.7658537 C6.61111111,31.9219512 6.80555556,32 7,32 C7.19444444,32 7.38888889,31.9219512 7.54444444,31.7658537 L10.6555556,28.6439024 C10.9666667,28.3317073 10.9666667,27.8634146 10.6555556,27.5512195 C10.3444444,27.2390244 9.87777778,27.2390244 9.56666667,27.5512195 Z" fill-rule="nonzero"></path>
                        <path d="M10.6555556,23.2585366 C10.3444444,22.9463415 9.87777778,22.9463415 9.56666667,23.2585366 L7,25.8341463 L4.43333333,23.2585366 C4.12222222,22.9463415 3.65555556,22.9463415 3.34444444,23.2585366 C3.03333333,23.5707317 3.03333333,24.0390244 3.34444444,24.3512195 L6.45555556,27.4731707 C6.61111111,27.6292683 6.80555556,27.7073171 7,27.7073171 C7.19444444,27.7073171 7.38888889,27.6292683 7.54444444,27.4731707 L10.6555556,24.3512195 C10.9666667,24.0390244 10.9666667,23.5707317 10.6555556,23.2585366 Z" fill-rule="nonzero"></path>
                        <path d="M14,14.0487805 L14,7.02439024 C14,3.16097561 10.85,0 7,0 C3.15,0 0,3.16097561 0,7.02439024 L0,14.0487805 C0,17.9121951 3.15,21.0731707 7,21.0731707 C10.85,21.0731707 14,17.9121951 14,14.0487805 Z M7,19.5121951 C4.00555556,19.5121951 1.55555556,17.0536585 1.55555556,14.0487805 L1.55555556,7.02439024 C1.55555556,4.0195122 4.00555556,1.56097561 7,1.56097561 C9.99444444,1.56097561 12.4444444,4.0195122 12.4444444,7.02439024 L12.4444444,14.0487805 C12.4444444,17.0536585 9.99444444,19.5121951 7,19.5121951 Z" fill-rule="nonzero"></path>
                        <path d="M7,4.29268293 C6.57222222,4.29268293 6.22222222,4.64390244 6.22222222,5.07317073 L6.22222222,7.41463415 C6.22222222,7.84390244 6.57222222,8.19512195 7,8.19512195 C7.42777778,8.19512195 7.77777778,7.84390244 7.77777778,7.41463415 L7.77777778,5.07317073 C7.77777778,4.64390244 7.42777778,4.29268293 7,4.29268293 Z" fill-rule="nonzero"></path>
                    </g>
                </g>
            </g>
        </g>
    </g>
</svg>